<svg width="375" height="332" viewBox="0 0 375 332" fill="none" xmlns="http://www.w3.org/2000/svg">
<g clip-path="url(#clip0_90_271)">
<path d="M-41.7832 180.347C45.2749 -13.4899 360.887 -11.2449 437.707 206.65" stroke="#C0D9FE" stroke-width="74"/>
<g clip-path="url(#clip1_90_271)">
<ellipse cx="195.833" cy="288.151" rx="143.75" ry="22.9686" fill="#1A2035"/>
<path d="M102.756 129.411C105.992 130.25 109.704 132.068 114.729 137.946C124.125 148.935 126.483 160.085 144.658 159.243C158.115 158.621 158.844 141.605 158.458 132.688C158.377 130.808 158.248 128.917 157.969 127.057L178.671 124.737C178.671 124.737 210.985 183.833 150.162 193.101C94.8154 201.535 99.065 157.468 95.2294 144.239C94.7954 142.743 91.9661 126.622 102.756 129.412V129.411Z" fill="#3984FF" stroke="#1A2035" stroke-width="1.38143" stroke-miterlimit="10"/>
<path d="M300.864 41.7003V268.155C300.864 271.204 298.398 273.676 295.355 273.676H173.414C170.371 273.676 167.905 271.204 167.905 268.155V41.7003C167.905 38.6508 170.371 36.1788 173.414 36.1788H204.358V39.7856C204.358 41.7603 205.954 43.36 207.925 43.36H260.846C262.815 43.36 264.412 41.7603 264.412 39.7856V36.1788H295.355C298.398 36.1788 300.864 38.6508 300.864 41.7003Z" fill="white"/>
<path d="M227.898 208.243H185.381C184 208.243 182.881 209.365 182.881 210.749V253.363C182.881 254.747 184 255.868 185.381 255.868H227.898C229.279 255.868 230.399 254.747 230.399 253.363V210.749C230.399 209.365 229.279 208.243 227.898 208.243Z" fill="#94C0FF" stroke="#231F20" stroke-width="1.09294" stroke-miterlimit="10"/>
<path d="M223.754 213.457H189.527C188.73 213.457 188.084 214.104 188.084 214.903V249.207C188.084 250.006 188.73 250.653 189.527 250.653H223.754C224.55 250.653 225.196 250.006 225.196 249.207V214.903C225.196 214.104 224.55 213.457 223.754 213.457Z" fill="white" stroke="#231F20" stroke-width="1.09294" stroke-miterlimit="10"/>
<path d="M217.686 241.596C217.771 240.136 217.915 238.683 218.14 237.237C218.228 236.668 218.324 236.101 218.47 235.545C218.5 235.428 218.483 235.345 218.389 235.271C217.727 234.749 217.768 233.524 218.531 233.078C218.655 233.005 218.64 232.894 218.64 232.784C218.64 231.664 218.636 230.546 218.643 229.426C218.645 229.223 218.605 229.177 218.403 229.252C217.342 229.647 216.274 230.028 215.211 230.414C212.43 231.425 209.648 232.435 206.868 233.449C206.708 233.508 206.565 233.504 206.406 233.446C202.517 232.029 198.626 230.616 194.736 229.201C193.603 228.79 192.471 228.378 191.34 227.967C191.28 227.946 191.22 227.925 191.16 227.901C191.068 227.865 190.983 227.82 190.98 227.704C190.976 227.575 191.067 227.524 191.168 227.486C191.677 227.3 192.187 227.114 192.697 226.929C197.239 225.278 201.783 223.628 206.323 221.972C206.549 221.89 206.744 221.895 206.967 221.976C211.665 223.688 216.367 225.395 221.068 227.102C221.405 227.225 221.742 227.347 222.079 227.471C222.184 227.51 222.3 227.546 222.305 227.686C222.31 227.841 222.185 227.879 222.071 227.92C221.247 228.221 220.424 228.526 219.596 228.816C219.395 228.886 219.333 228.992 219.334 229.201C219.343 230.392 219.341 231.583 219.337 232.775C219.337 232.92 219.367 233.023 219.498 233.116C220.17 233.596 220.251 234.62 219.657 235.199C219.511 235.341 219.479 235.465 219.528 235.66C219.824 236.864 219.971 238.094 220.105 239.325C220.191 240.111 220.263 240.899 220.291 241.69C220.297 241.885 220.343 242.125 220.141 242.236C219.955 242.339 218.008 242.347 217.815 242.226C217.637 242.114 217.695 241.896 217.686 241.716C217.683 241.676 217.686 241.636 217.686 241.596Z" fill="#445699"/>
<path d="M215.502 235.317C215.502 235.981 215.482 236.646 215.507 237.308C215.535 238.021 215.224 238.536 214.669 238.934C214.011 239.408 213.264 239.685 212.492 239.897C211.087 240.28 209.649 240.457 208.196 240.537C207.415 240.58 206.634 240.592 205.853 240.569C204.032 240.517 202.226 240.335 200.473 239.803C199.768 239.589 199.09 239.312 198.503 238.849C198.023 238.471 197.766 237.994 197.772 237.363C197.787 235.941 197.777 234.518 197.777 233.094C197.777 232.783 197.793 232.772 198.087 232.879C200.861 233.886 203.634 234.895 206.406 235.907C206.565 235.966 206.703 235.97 206.865 235.91C209.637 234.896 212.41 233.889 215.183 232.882C215.486 232.772 215.501 232.782 215.501 233.112C215.501 233.848 215.501 234.583 215.501 235.319L215.502 235.317Z" fill="#445699"/>
<path d="M284.165 208.243H241.647C240.267 208.243 239.147 209.365 239.147 210.749V253.363C239.147 254.747 240.267 255.868 241.647 255.868H284.165C285.546 255.868 286.665 254.747 286.665 253.363V210.749C286.665 209.365 285.546 208.243 284.165 208.243Z" fill="#94C0FF" stroke="#231F20" stroke-width="1.09294" stroke-miterlimit="10"/>
<path d="M280.019 213.457H245.792C244.995 213.457 244.35 214.104 244.35 214.903V249.207C244.35 250.006 244.995 250.653 245.792 250.653H280.019C280.816 250.653 281.462 250.006 281.462 249.207V214.903C281.462 214.104 280.816 213.457 280.019 213.457Z" fill="white" stroke="#231F20" stroke-width="1.09294" stroke-miterlimit="10"/>
<path d="M271.417 241.17L264.711 234.413L266.182 232.908L272.917 239.665L271.417 241.17ZM256.447 240.698C254.663 239.006 253.594 236.857 253.241 234.251C252.888 231.645 253.339 229.269 254.594 227.125C254.653 227.873 254.81 228.679 255.065 229.545C255.32 230.41 255.663 231.295 256.094 232.2C256.525 233.105 257.04 234.01 257.638 234.915C258.236 235.82 258.888 236.695 259.594 237.541L256.447 240.698ZM261.123 236.006C260.28 235.023 259.53 233.98 258.873 232.879C258.216 231.777 257.702 230.725 257.329 229.722C256.957 228.719 256.741 227.824 256.682 227.037C256.623 226.25 256.77 225.68 257.123 225.326C257.457 224.991 258.02 224.858 258.814 224.927C259.609 224.996 260.506 225.217 261.506 225.591C262.505 225.965 263.559 226.471 264.667 227.111C265.775 227.75 266.819 228.483 267.799 229.309L261.123 236.006ZM269.299 227.804C268.417 227.057 267.51 226.383 266.579 225.783C265.647 225.183 264.736 224.667 263.844 224.234C262.952 223.801 262.089 223.462 261.256 223.216C260.422 222.97 259.653 222.827 258.947 222.788C261.123 221.549 263.471 221.101 265.991 221.446C268.51 221.79 270.662 222.857 272.446 224.647L269.299 227.804Z" fill="#445699"/>
<path d="M300.24 26.7883H168.531C162.654 26.7883 157.89 31.5624 157.89 37.4514V272.404C157.89 278.293 162.654 283.069 168.531 283.069H300.24C306.116 283.069 310.88 278.293 310.88 272.404V37.4514C310.88 31.5624 306.116 26.7883 300.24 26.7883ZM300.864 268.155C300.864 271.205 298.398 273.677 295.355 273.677H173.414C170.371 273.677 167.905 271.205 167.905 268.155V41.7007C167.905 38.6512 170.371 36.1791 173.414 36.1791H204.358V39.786C204.358 41.7607 205.954 43.3604 207.925 43.3604H260.846C262.815 43.3604 264.412 41.7607 264.412 39.786V36.1791H295.355C298.398 36.1791 300.864 38.6512 300.864 41.7007V268.155Z" fill="white" stroke="#231F20" stroke-width="1.31679" stroke-miterlimit="10"/>
<path d="M202.276 136.994C203.404 135.716 204.563 134.398 206.083 133.627C206.295 133.52 206.548 133.422 206.765 133.522C206.969 133.617 207.063 133.851 207.138 134.063C207.751 135.808 208.366 137.554 208.98 139.299C209.356 140.367 209.736 141.516 209.447 142.611C209.139 143.777 208.147 144.613 207.208 145.368C201.094 150.283 194.98 155.199 188.866 160.113C187.716 161.036 186.527 161.982 185.113 162.396C182.79 163.077 179.178 161.291 180.93 158.468C181.392 157.724 182.893 157.147 183.581 156.58C184.944 155.456 186.16 154.059 187.41 152.81C192.528 147.695 197.488 142.42 202.278 136.994H202.276Z" fill="white" stroke="#231F20" stroke-width="1.00315" stroke-miterlimit="10"/>
<path d="M338.363 106.794H210.372C206.625 106.794 203.588 109.839 203.588 113.594V186.198C203.588 189.953 206.625 192.998 210.372 192.998H338.363C342.11 192.998 345.148 189.953 345.148 186.198V113.594C345.148 109.839 342.11 106.794 338.363 106.794Z" fill="#94C0FF" stroke="#231F20" stroke-width="1.31679" stroke-miterlimit="10"/>
<path d="M336.1 121.212V178.58C336.1 183.635 335.299 183.952 330.182 183.952H218.55C213.521 183.952 212.632 183.952 212.632 178.58V121.212C212.339 115.839 213.44 115.839 218.55 115.839H330.182C335.666 115.837 336.1 115.554 336.1 121.212Z" fill="white" stroke="#231F20" stroke-width="1.31679" stroke-miterlimit="10"/>
<path d="M107.077 62.7664C107.359 65.0222 107.034 67.458 106.824 69.7539C106.3 75.4567 106.669 81.2407 107.915 86.8297C108.24 88.2932 108.724 89.8817 109.992 90.6778C111.718 91.7601 113.995 90.839 115.638 89.6354C118.504 87.5346 120.854 84.0164 119.954 80.5745C118.811 76.204 114.853 74.2269 115.108 69.2227C115.251 66.4632 116.212 63.8249 116.963 61.1666C118.238 56.6487 118.515 51.4496 114.509 48.1764C112.38 46.4379 109.756 42.8323 104.88 44.9495C103.638 41.4151 102.719 38.4531 98.4577 37.9769C94.2293 37.5045 89.7365 39.4442 87.5157 43.166C88.9659 40.7364 80.8644 38.4118 79.6548 38.2744C75.8142 37.8394 71.7865 38.8755 68.6616 41.1651C65.5143 43.471 63.3147 46.9116 62.2448 50.646C61.7211 52.4756 60.4454 61.0554 63.1576 62.0077C60.1499 60.9504 56.6833 61.2966 53.9425 62.9276C51.2017 64.5586 49.2402 67.4443 48.7265 70.5975C47.7801 76.414 51.4149 80.6745 53.8228 85.4949C52.8988 83.6465 49.5732 90.2778 49.5009 90.8127C48.7988 96.0581 53.0198 102.894 58.7358 102.959C60.0177 102.974 61.6138 102.774 62.2809 103.872C62.6563 104.488 62.5416 105.269 62.4755 105.988C62.2223 108.778 63.0379 111.802 65.1801 113.601C67.7775 115.785 71.8227 115.632 74.6782 113.801C77.5338 111.972 79.2982 108.776 80.11 105.476C80.9217 102.177 80.8868 98.7376 80.8482 95.3407C80.7247 84.6376 80.6013 73.9332 80.4766 63.23C80.4704 62.7389 80.4741 62.2152 80.7447 61.8065C81.0402 61.3591 81.5826 61.1566 82.0839 60.9654C86.1403 59.4232 89.8213 56.9174 94.0098 55.7863C98.1984 54.6553 103.372 55.3364 105.76 58.9658C106.521 60.1218 106.907 61.4116 107.077 62.7664Z" fill="#1A2035" stroke="#1A2035" stroke-width="0.119708" stroke-miterlimit="10"/>
<path d="M80.0938 87.9926C79.7147 96.5874 77.8243 104.346 74.0635 111.07C73.3128 112.412 72.2055 113.521 70.87 114.279L61.65 119.517C60.4903 120.176 60.2571 121.754 61.1811 122.718C64.3571 126.029 71.4498 132.52 79.1373 133.602C83.3147 134.191 87.6366 133.915 91.6992 132.769C94.243 132.05 96.5536 130.779 98.7882 129.392C100.155 128.544 104.163 126.931 104.411 125.172C104.468 124.768 105.237 123.267 105.139 122.869C102.149 110.822 97.2569 100.157 91.7454 89.025L80.0938 87.9914V87.9926Z" fill="white"/>
<path d="M78.5288 94.4091L104.517 120.482L97.9963 96.7861L78.5288 94.4091Z" fill="#1A2035" stroke="#1A2035" stroke-width="0.119708" stroke-miterlimit="10"/>
<path d="M114.471 77.0383C116.882 87.3903 110.013 97.8472 99.1298 100.394C88.2464 102.94 77.4689 96.6112 75.0573 86.2592C74.9912 85.9755 72.5883 75.6323 72.5397 75.3799C70.6281 65.2804 77.4253 55.2671 88.0419 52.7838C98.6597 50.3005 109.177 56.2632 111.922 66.1665C111.991 66.4152 112.055 66.6651 112.113 66.9188C112.113 66.9188 114.404 76.7559 114.47 77.0396L114.471 77.0383Z" fill="white" stroke="#1A2035" stroke-width="1.31679" stroke-miterlimit="10"/>
<path d="M78.1909 97.4835L68.2564 91.5483L68.1242 73.4439L79.984 75.596L80.6636 86.9291C80.5788 88.1726 79.4329 97.4197 78.1909 97.4835Z" fill="#1A2035"/>
<path d="M77.8168 79.8003C77.6235 79.6603 77.4253 79.5253 77.222 79.3953C74.6682 77.7694 71.2054 78.7892 71.9611 82.2473C72.6332 85.3256 75.2855 89.2349 78.5912 90.0585C81.2123 90.7121 82.4829 89.2886 82.14 86.8165C81.746 83.977 80.1511 81.4962 77.8168 79.8003Z" fill="white"/>
<path d="M78.9902 85.4339C78.8219 84.1991 78.146 83.1205 77.1559 82.3819C77.0736 82.3207 76.9901 82.2619 76.904 82.2057C75.8217 81.4971 74.4962 81.782 74.7268 83.3017C74.7705 83.5892 75.0199 84.1028 75.0199 84.1028" stroke="#1A2035" stroke-width="1.19708" stroke-linecap="round" stroke-linejoin="round"/>
<path d="M95.4239 78.8629C96.5726 78.8629 97.5038 77.9296 97.5038 76.7783C97.5038 75.627 96.5726 74.6937 95.4239 74.6937C94.2752 74.6937 93.344 75.627 93.344 76.7783C93.344 77.9296 94.2752 78.8629 95.4239 78.8629Z" fill="#1A2035"/>
<path d="M107.72 76.1441C108.869 76.1441 109.8 75.2108 109.8 74.0595C109.8 72.9082 108.869 71.9749 107.72 71.9749C106.571 71.9749 105.64 72.9082 105.64 74.0595C105.64 75.2108 106.571 76.1441 107.72 76.1441Z" fill="#1A2035"/>
<path d="M90.3575 73.0698C91.6294 72.1612 93.2205 71.7113 94.7792 71.8176" stroke="#1A2035" stroke-width="1.19708" stroke-linecap="round" stroke-linejoin="round"/>
<path d="M109.703 68.3682C108.157 68.1482 106.537 68.4819 105.203 69.2955" stroke="#1A2035" stroke-width="1.19708" stroke-linecap="round" stroke-linejoin="round"/>
<path d="M113.095 223.034C113.095 223.034 201.79 232.905 198.595 262.735C195.4 292.564 101.008 293.88 101.008 293.88L83.0665 292.691C81.0115 292.554 79.3044 291.046 78.9166 289.014C77.2968 280.521 78.3393 272.338 81.4754 264.637C82.0727 263.171 84.7374 262.175 84.7374 262.175C103.795 256.599 127.048 256.349 145.62 257.079C146.405 257.159 108.884 254.826 84.518 262.248C83.1638 262.661 82.0353 263.619 81.4168 264.898C80.0389 267.744 79.7309 271.421 78.8867 271.174C75.0984 270.068 63.897 275.622 61.2896 273.176C48.0282 260.739 56.02 229.67 86.2575 222.895C93.8103 221.203 102.751 221.027 113.096 223.034H113.095Z" fill="#3984FF" stroke="#1A2035" stroke-width="1.09653" stroke-miterlimit="10"/>
<path d="M77.8131 284.784C75.1782 287.297 74.142 288.743 73.4674 292.325C72.7105 296.347 70.0819 299.975 66.4994 301.939C64.5629 303.001 61.7647 303.406 60.4516 301.625C59.3693 300.158 59.9491 298.118 60.3095 296.328C61.14 292.192 60.5065 287.916 60.5526 283.694C60.6088 278.688 62.0016 273.012 66.8922 270.714C71.1281 268.724 75.6683 268.166 80.3057 267.876C79.5413 269.977 78.4939 284.032 78.4951 284.038C78.3655 284.114 78.2221 284.392 77.8131 284.783V284.784Z" fill="white" stroke="#1A2035" stroke-width="1.58254" stroke-linecap="round" stroke-linejoin="round"/>
<path d="M72.7167 268.751C72.9661 268.731 73.117 269.013 72.9686 269.216C72.516 269.833 72.1145 270.779 71.8638 271.2C68.0818 277.539 66.8997 285.952 71.4673 292.22C71.5783 292.373 72.8414 293.923 72.9512 293.755C73.0222 293.646 72.93 294.339 72.9175 294.415C72.7965 295.132 72.5758 295.809 72.4524 296.521C71.0857 304.401 69.6368 312.236 67.4957 319.952C67.1191 321.308 66.7139 322.688 65.9096 323.842C63.6351 327.106 57.5263 326.932 55.3354 323.709C54.5672 322.579 54.2031 321.219 54.0136 319.864C53.7106 317.695 53.6096 315.474 53.5335 313.287C53.3751 308.663 53.3652 304.02 53.0547 299.404C52.7392 294.713 52.3938 289.916 52.5696 285.174C52.7379 280.604 53.142 275.721 56.3105 272.138C56.3716 272.069 56.4327 272.003 56.4938 271.935C58.5114 269.764 61.433 269.486 64.2237 269.263C65.7961 269.138 67.3723 269.061 68.9497 269.006C69.8537 268.974 71.6593 268.836 72.7167 268.751Z" fill="#3984FF" stroke="#1A2035" stroke-width="1.45086" stroke-miterlimit="10"/>
<path d="M124.701 248.121C123.983 249.97 88.0706 280.291 80.08 281.974C72.5197 283.562 63.877 284.596 57.752 279.879C54.3627 277.268 52.3452 273.296 50.5022 269.431C36.5337 240.146 26.1029 207.599 31.1394 175.536C32.521 166.744 35.0423 158.17 37.934 149.754C43.5217 133.492 53.6196 125.191 67.2463 115.565C67.2463 115.565 67.2488 115.564 67.2488 115.562C70.3276 118.071 72.8377 121.183 75.9152 123.705C79.7234 126.827 84.0142 130.265 89.0744 130.852C92.385 131.236 95.9239 130.026 98.3143 127.603C99.9603 125.931 102.518 121.994 102.518 121.994C105.304 118.848 105.565 121.079 108.189 124.047C119.272 136.588 121.616 156.478 123.043 172.45C124.159 184.944 125.156 246.953 124.704 248.121H124.701Z" fill="#3984FF" stroke="#1A2035" stroke-width="1.31679" stroke-miterlimit="10"/>
<path d="M69.2178 233.416C78.1896 222.9 88.2214 212.988 98.4515 203.833C108.623 194.728 119.758 185.559 132.469 180.269C139.868 177.19 149.153 175.331 155.853 180.973C180.387 201.63 124.932 286.622 124.932 286.622L118.769 296.562C117.416 298.313 115.104 298.471 113.021 298.069C105.208 296.562 92.2329 293.984 87.2862 286.588C86.3448 285.181 87.0605 282.208 87.0605 282.208C93.5484 261.879 107.275 240.986 119.062 224.853C119.604 224.2 95.0286 256.28 86.9932 282.446C86.5468 283.9 86.7201 285.48 87.482 286.796C89.1791 289.724 92.2541 292.193 91.5296 292.8C88.2763 295.519 90.537 296.386 86.8024 297.253C72.405 300.594 59.0737 291.199 54.9688 278.612C49.1679 260.826 54.1171 251.99 65.2075 238.247C66.5181 236.623 67.8548 235.013 69.2165 233.417L69.2178 233.416Z" fill="#3984FF" stroke="#1A2035" stroke-width="1.31679" stroke-miterlimit="10"/>
<path d="M103.313 302.189C103.959 305.995 104.614 307.762 107.355 310.474C110.434 313.517 112.058 317.977 111.663 322.293C111.428 324.852 104.731 326.096 103.086 324.428C99.9516 321.251 95.8292 319.282 92.1556 316.745C87.8 313.736 77.768 312.608 78.6458 306.944C79.4065 302.037 87.4795 294.255 89.9672 290.001C91.3563 291.916 103.059 301.147 103.065 301.149C103.057 301.308 103.215 301.599 103.315 302.189H103.313Z" fill="white" stroke="#1A2035" stroke-width="1.67591" stroke-linecap="round" stroke-linejoin="round"/>
<path d="M77.5495 306.784C77.5146 306.521 77.805 306.345 78.0256 306.491C78.7016 306.937 79.723 307.309 80.1801 307.553C87.077 311.211 96.0172 311.999 102.381 306.812C102.536 306.686 104.101 305.262 103.919 305.155C103.8 305.085 104.536 305.145 104.618 305.154C105.381 305.242 106.107 305.439 106.864 305.532C115.254 306.545 123.601 307.648 131.86 309.491C133.312 309.815 134.791 310.168 136.053 310.957C139.622 313.188 139.776 319.672 136.497 322.173C135.346 323.05 133.932 323.511 132.514 323.787C130.242 324.227 127.904 324.458 125.6 324.658C120.73 325.081 115.833 325.349 110.98 325.932C106.046 326.526 101.005 327.156 95.9916 327.233C92.633 327.284 82.8125 327.302 79.1667 324.692C76.7656 322.673 76.5625 318.95 76.5625 315.818C76.5625 313.73 77.0833 310.076 77.5503 306.785L77.5495 306.784Z" fill="#3984FF" stroke="#1A2035" stroke-width="1.53586" stroke-miterlimit="10"/>
<path d="M92.2653 62.9968C89.7577 62.863 87.2438 62.4631 84.7462 62.7293C82.7722 62.9405 80.5963 63.8016 79.9379 65.6775C79.6698 66.4412 79.6947 67.2723 79.7234 68.0809C79.8294 71.1116 79.9341 74.1423 80.0401 77.173C76.6409 76.8306 73.2417 76.4882 69.8412 76.147C68.3212 75.9945 66.5119 75.6321 65.957 74.2048C65.6278 73.3575 65.8772 72.4076 66.129 71.534C67.0119 68.4745 67.9134 65.3713 69.5831 62.6606C72.2367 58.3551 76.6621 55.3718 81.3906 53.5984C86.1191 51.8249 91.178 51.1551 96.1982 50.6151C109.273 49.2091 102.502 63.5392 92.2641 62.9943L92.2653 62.9968Z" fill="#1A2035" stroke="#1A2035" stroke-width="0.119708" stroke-miterlimit="10"/>
<path d="M274.607 53.0697H194.162C191.784 53.0697 189.856 55.0018 189.856 57.3852V86.5626C189.856 88.946 191.784 90.8781 194.162 90.8781H274.607C276.985 90.8781 278.913 88.946 278.913 86.5626V57.3852C278.913 55.0018 276.985 53.0697 274.607 53.0697Z" fill="#94C0FF" stroke="#231F20" stroke-width="1.31679" stroke-miterlimit="10"/>
<path d="M202.963 70.6116V61.9768H208.668V63.4815H204.785V65.5387H208.289V67.0434H204.785V70.6103H202.963V70.6116Z" fill="#1A2035" stroke="#1A2035" stroke-width="0.119708" stroke-miterlimit="10"/>
<path d="M211.713 61.9768V70.6116H209.891V61.9768H211.713Z" fill="#1A2035" stroke="#1A2035" stroke-width="0.119708" stroke-miterlimit="10"/>
<path d="M220.42 61.9768V70.6116H218.847L215.098 65.1763H215.035V70.6116H213.213V61.9768H214.812L218.53 67.4071H218.606V61.9768H220.419H220.42Z" fill="#1A2035" stroke="#1A2035" stroke-width="0.119708" stroke-miterlimit="10"/>
<path d="M223.408 70.6116H221.457L224.431 61.9768H226.779L229.749 70.6116H227.797L225.639 63.9502H225.572L223.409 70.6116H223.408ZM223.286 67.2171H227.896V68.6419H223.286V67.2171Z" fill="#1A2035" stroke="#1A2035" stroke-width="0.119708" stroke-miterlimit="10"/>
<path d="M237.988 61.9768V70.6116H236.414L232.666 65.1763H232.602V70.6116H230.78V61.9768H232.379L236.097 67.4071H236.173V61.9768H237.986H237.988Z" fill="#1A2035" stroke="#1A2035" stroke-width="0.119708" stroke-miterlimit="10"/>
<path d="M247.092 65.0003H245.249C245.215 64.7616 245.146 64.5479 245.043 64.3617C244.939 64.1742 244.806 64.0155 244.643 63.883C244.48 63.7505 244.292 63.6493 244.081 63.5793C243.869 63.5093 243.64 63.4743 243.393 63.4743C242.947 63.4743 242.559 63.5843 242.228 63.8055C241.898 64.0267 241.641 64.3467 241.459 64.7666C241.277 65.1865 241.186 65.6965 241.186 66.2951C241.186 66.8937 241.278 67.4274 241.462 67.8473C241.645 68.266 241.903 68.5822 242.233 68.7959C242.564 69.0096 242.947 69.1159 243.382 69.1159C243.626 69.1159 243.852 69.0834 244.061 69.0184C244.27 68.9534 244.457 68.8584 244.619 68.7334C244.781 68.6084 244.917 68.456 245.025 68.276C245.134 68.096 245.209 67.8911 245.25 67.6599L247.093 67.6686C247.045 68.0648 246.927 68.446 246.737 68.8134C246.548 69.1809 246.295 69.5083 245.976 69.7957C245.658 70.0844 245.279 70.3119 244.84 70.4794C244.401 70.6468 243.904 70.7306 243.352 70.7306C242.584 70.7306 241.897 70.5569 241.293 70.2082C240.688 69.8595 240.212 69.3546 239.863 68.6947C239.514 68.0335 239.339 67.2349 239.339 66.2951C239.339 65.3553 239.516 64.5529 239.869 63.8918C240.222 63.2306 240.702 62.727 241.308 62.3808C241.914 62.0333 242.595 61.8596 243.353 61.8596C243.852 61.8596 244.316 61.9296 244.744 62.0708C245.171 62.2108 245.55 62.4158 245.882 62.6845C246.212 62.9532 246.483 63.2806 246.691 63.6693C246.9 64.0567 247.034 64.5017 247.093 65.0016L247.092 65.0003Z" fill="#1A2035" stroke="#1A2035" stroke-width="0.119708" stroke-miterlimit="10"/>
<path d="M250.221 61.9768V70.6116H248.4V61.9768H250.221Z" fill="#1A2035" stroke="#1A2035" stroke-width="0.119708" stroke-miterlimit="10"/>
<path d="M253.208 70.6116H251.256L254.23 61.9768H256.578L259.549 70.6116H257.597L255.439 63.9502H255.371L253.209 70.6116H253.208ZM253.086 67.2171H257.696V68.6419H253.086V67.2171Z" fill="#1A2035" stroke="#1A2035" stroke-width="0.119708" stroke-miterlimit="10"/>
<path d="M260.582 70.6116V61.9768H262.404V69.1068H266.098V70.6116H260.582Z" fill="#1A2035" stroke="#1A2035" stroke-width="0.119708" stroke-miterlimit="10"/>
<path d="M220.282 77.8906C220.223 77.6857 220.14 77.5032 220.034 77.3445C219.927 77.1858 219.797 77.0508 219.645 76.9396C219.493 76.8283 219.318 76.7433 219.123 76.6846C218.929 76.6259 218.713 76.5959 218.478 76.5959C218.037 76.5959 217.651 76.7058 217.319 76.9246C216.986 77.1433 216.728 77.462 216.544 77.8794C216.359 78.2968 216.265 78.8067 216.265 79.4079C216.265 80.009 216.356 80.5214 216.539 80.9426C216.721 81.3638 216.979 81.685 217.313 81.9062C217.647 82.1274 218.041 82.2374 218.495 82.2374C218.908 82.2374 219.259 82.1636 219.552 82.0162C219.845 81.8687 220.07 81.66 220.226 81.39C220.382 81.1201 220.459 80.8014 220.459 80.4327L220.829 80.4877H218.608V79.1129H222.213V80.2002C222.213 80.9589 222.054 81.61 221.733 82.1549C221.414 82.6986 220.974 83.1172 220.413 83.4109C219.852 83.7046 219.21 83.8521 218.486 83.8521C217.678 83.8521 216.969 83.6734 216.358 83.3147C215.747 82.956 215.27 82.4461 214.93 81.7837C214.59 81.1213 214.419 80.3352 214.419 79.4241C214.419 78.7242 214.521 78.0994 214.724 77.5494C214.927 76.9995 215.213 76.5346 215.581 76.1522C215.949 75.7698 216.376 75.4786 216.864 75.2798C217.352 75.0799 217.88 74.9811 218.45 74.9811C218.938 74.9811 219.393 75.0524 219.813 75.1936C220.233 75.3361 220.607 75.536 220.934 75.7948C221.261 76.0535 221.528 76.3609 221.736 76.7158C221.943 77.072 222.076 77.4632 222.136 77.8906H220.286H220.282Z" fill="#1A2035" stroke="#1A2035" stroke-width="0.119708" stroke-miterlimit="10"/>
<path d="M231.497 79.4166C231.497 80.359 231.32 81.1601 230.965 81.82C230.609 82.4811 230.128 82.9848 229.517 83.3309C228.907 83.6784 228.221 83.8521 227.462 83.8521C226.703 83.8521 226.009 83.6784 225.401 83.3297C224.792 82.981 224.311 82.4761 223.958 81.8162C223.605 81.1563 223.428 80.3565 223.428 79.4166C223.428 78.4768 223.605 77.6744 223.958 77.0133C224.311 76.3522 224.792 75.8485 225.401 75.5023C226.009 75.1549 226.696 74.9811 227.462 74.9811C228.228 74.9811 228.907 75.1549 229.517 75.5023C230.127 75.8497 230.609 76.3534 230.965 77.0133C231.319 77.6744 231.497 78.4743 231.497 79.4166ZM229.65 79.4166C229.65 78.8067 229.559 78.2918 229.379 77.8731C229.198 77.4545 228.943 77.137 228.615 76.9208C228.287 76.7046 227.903 76.5959 227.463 76.5959C227.023 76.5959 226.639 76.7046 226.311 76.9208C225.983 77.137 225.729 77.4545 225.548 77.8731C225.367 78.2918 225.276 78.8067 225.276 79.4166C225.276 80.0265 225.367 80.5414 225.548 80.9601C225.729 81.3788 225.983 81.6962 226.311 81.9124C226.639 82.1287 227.023 82.2374 227.463 82.2374C227.903 82.2374 228.287 82.1287 228.615 81.9124C228.943 81.6962 229.198 81.3788 229.379 80.9601C229.559 80.5414 229.65 80.0265 229.65 79.4166Z" fill="#1A2035" stroke="#1A2035" stroke-width="0.119708" stroke-miterlimit="10"/>
<path d="M233.844 83.7345H231.892L234.866 75.0997H237.214L240.185 83.7345H238.233L236.075 77.0731H236.007L233.845 83.7345H233.844ZM233.723 80.3401H238.333V81.7648H233.723V80.3401Z" fill="#1A2035" stroke="#1A2035" stroke-width="0.119708" stroke-miterlimit="10"/>
<path d="M241.218 83.7345V75.0997H243.04V82.2297H246.734V83.7345H241.218Z" fill="#1A2035" stroke="#1A2035" stroke-width="0.119708" stroke-miterlimit="10"/>
<path d="M252.614 77.5829C252.581 77.243 252.436 76.9793 252.182 76.7906C251.926 76.6019 251.581 76.5081 251.143 76.5081C250.846 76.5081 250.594 76.5494 250.39 76.6331C250.185 76.7156 250.028 76.8306 249.921 76.9768C249.812 77.123 249.759 77.2892 249.759 77.4742C249.753 77.6292 249.786 77.7642 249.857 77.8791C249.928 77.9941 250.028 78.0941 250.154 78.1766C250.28 78.2591 250.426 78.3316 250.592 78.3916C250.758 78.4515 250.933 78.5028 251.122 78.5453L251.896 78.7302C252.271 78.814 252.617 78.9265 252.931 79.0677C253.245 79.2077 253.517 79.3814 253.747 79.5863C253.976 79.7913 254.156 80.0338 254.283 80.3112C254.41 80.5887 254.476 80.9086 254.479 81.2686C254.476 81.7972 254.341 82.2546 254.077 82.6408C253.811 83.027 253.431 83.3269 252.932 83.5394C252.435 83.7519 251.835 83.8581 251.134 83.8581C250.433 83.8581 249.834 83.7506 249.319 83.5382C248.804 83.3244 248.403 83.0083 248.115 82.5871C247.827 82.1672 247.678 81.646 247.663 81.0248H249.426C249.446 81.3148 249.529 81.556 249.677 81.7485C249.824 81.9409 250.022 82.0859 250.27 82.1821C250.518 82.2784 250.8 82.3271 251.113 82.3271C251.426 82.3271 251.69 82.2821 251.919 82.1921C252.147 82.1022 252.324 81.9772 252.451 81.8172C252.577 81.6572 252.641 81.4735 252.641 81.2648C252.641 81.0711 252.583 80.9074 252.47 80.7761C252.356 80.6437 252.19 80.5312 251.973 80.4387C251.756 80.3462 251.491 80.2612 251.177 80.1862L250.239 79.95C249.512 79.7726 248.94 79.4964 248.518 79.1189C248.098 78.7427 247.888 78.2353 247.891 77.5967C247.888 77.0743 248.028 76.6169 248.31 76.2269C248.592 75.8357 248.979 75.5308 249.473 75.3121C249.967 75.0934 250.528 74.9834 251.155 74.9834C251.783 74.9834 252.354 75.0934 252.831 75.3121C253.309 75.5308 253.682 75.837 253.949 76.2269C254.215 76.6169 254.353 77.0705 254.361 77.5842H252.616L252.614 77.5829Z" fill="#1A2035" stroke="#1A2035" stroke-width="0.119708" stroke-miterlimit="10"/>
<path d="M201.676 142.327C202.877 141.494 205.226 142.247 206.27 144.817C206.799 146.118 206.651 147.583 206.497 148.984C206.199 151.689 205.553 154.359 205.32 157.069C205.09 159.749 204.86 160.238 205.419 162.829C205.669 163.985 206.119 165.29 204.651 165.7C198.915 167.298 193.171 168.928 187.372 170.283C186.493 170.488 185.614 170.688 184.732 170.882C183.962 171.05 183.04 171.135 182.308 171.429C180.276 171.869 180.127 169.546 178.667 168.601C177.832 168.061 177.405 167.105 177.115 166.174C176.112 162.963 176.571 161.035 177.524 157.789C178.508 154.438 182.591 153.558 185.401 151.995C188.171 150.454 199.14 144.082 201.674 142.327H201.676Z" fill="white" stroke="#231F20" stroke-width="0.98041" stroke-linecap="round" stroke-linejoin="round"/>
<path d="M199.009 144.02C202.79 141.631 208.746 137.791 212.526 135.403C214.086 134.417 216.035 133.376 217.709 133.967C219.772 134.696 219.653 137.416 218.256 139.08C217.451 140.036 216.374 140.798 215.31 141.546C211.215 144.426 207.534 147.015 203.439 149.895" fill="white"/>
<path d="M199.009 144.02C202.79 141.631 208.746 137.791 212.526 135.403C214.086 134.417 216.035 133.376 217.709 133.967C219.772 134.696 219.653 137.416 218.256 139.08C217.451 140.036 216.374 140.798 215.31 141.546C211.215 144.426 207.534 147.015 203.439 149.895" stroke="#231F20" stroke-width="1.00315" stroke-linecap="round" stroke-linejoin="round"/>
<path d="M202.48 148.112C206.624 146.328 211.108 144.176 215.252 142.393C216.961 141.657 219.062 140.926 220.591 141.772C222.474 142.815 221.853 145.497 220.176 146.931C219.212 147.756 218.015 148.343 216.835 148.921C212.293 151.143 208.281 153.106 203.739 155.328" fill="white"/>
<path d="M202.48 148.112C206.624 146.328 211.108 144.176 215.252 142.393C216.961 141.657 219.062 140.926 220.591 141.772C222.474 142.815 221.853 145.497 220.176 146.931C219.212 147.756 218.015 148.343 216.835 148.921C212.293 151.143 208.281 153.106 203.739 155.328" stroke="#231F20" stroke-width="0.98041" stroke-linecap="round" stroke-linejoin="round"/>
<path d="M202.99 154.493C207.251 153.02 212.386 150.912 216.646 149.44C218.404 148.832 220.553 148.259 222.016 149.216C223.822 150.396 223.012 153.024 221.237 154.329C220.217 155.08 218.981 155.577 217.763 156.066C213.073 157.946 209.289 159.347 204.599 161.226" fill="white"/>
<path d="M202.99 154.493C207.251 153.02 212.386 150.912 216.646 149.44C218.404 148.832 220.553 148.259 222.016 149.216C223.822 150.396 223.012 153.024 221.237 154.329C220.217 155.08 218.981 155.577 217.763 156.066C213.073 157.946 209.289 159.347 204.599 161.226" stroke="#231F20" stroke-width="0.98041" stroke-linecap="round" stroke-linejoin="round"/>
<path d="M204.191 159.914C208.089 158.96 211.402 158.126 215.3 157.171C216.909 156.778 218.864 156.429 220.114 157.25C221.655 158.263 220.77 160.288 219.104 161.23C218.146 161.771 217.011 162.103 215.893 162.429C211.587 163.683 207.893 164.755 203.588 166.009" fill="white"/>
<path d="M204.191 159.914C208.089 158.96 211.402 158.126 215.3 157.171C216.909 156.778 218.864 156.429 220.114 157.25C221.655 158.263 220.77 160.288 219.104 161.23C218.146 161.771 217.011 162.103 215.893 162.429C211.587 163.683 207.893 164.755 203.588 166.009" stroke="#231F20" stroke-width="0.98041" stroke-linecap="round" stroke-linejoin="round"/>
<path d="M128.223 158.431C124.549 158.083 120.903 157.465 117.32 156.563C107.352 154.053 97.3716 149.154 89.2589 142.382C81.5452 135.943 74.9613 124.636 64.1788 123.287C62.0453 123.021 59.8793 123.152 57.7819 123.615C45.2026 126.396 40.8744 140.617 44.6913 151.743C51.3863 171.262 70.6456 185.929 89.5033 193.62C97.0474 196.697 105.035 198.666 113.132 199.529C138.271 202.209 165.033 193.525 181.766 174.602C182.508 173.762 182.882 172.659 182.795 171.542L181.28 152.224C181.055 149.365 178.055 147.609 175.46 148.817C174.557 149.237 173.834 149.562 173.6 149.677C171.048 150.928 168.441 152.061 165.786 153.071C160.484 155.088 154.994 156.612 149.404 157.576C142.427 158.78 135.277 159.101 128.224 158.431H128.223Z" fill="#3984FF" stroke="#1A2035" stroke-width="1.31679" stroke-miterlimit="10"/>
<path d="M287.296 129.145C300.883 131.851 308.991 140.348 312.79 153.4C313.051 154.296 313.073 155.282 313.859 155.997C315.184 157.203 315.217 158.83 315.053 160.434C314.865 162.287 313.8 163.171 311.885 163.317C309.557 163.496 310.372 161.698 310.208 160.721C309.277 155.179 304.894 151.429 299.379 151.609C294.088 151.781 289.731 155.918 289.432 161.34C289.337 163.058 288.789 163.432 287.203 163.418C280.677 163.362 274.148 163.328 267.628 163.506C265.371 163.567 264.397 163.287 264.184 160.637C263.771 155.509 259.476 151.849 254.359 151.605C249.365 151.368 244.863 154.886 243.659 159.77C243.351 161.018 244.29 162.796 242.829 163.431C241.68 163.93 240.168 163.599 238.818 163.628C238.261 163.64 237.703 163.615 237.147 163.633C235.908 163.672 234.693 163.574 234.081 162.289C233.415 160.891 233.405 159.274 234.436 158.23C235.768 156.884 236.133 155.238 236.733 153.618C237.515 151.504 238.656 149.607 240.228 147.971C244.892 143.115 250.82 141.062 257.297 140.366C259.096 140.172 260.176 139.546 260.895 137.851C261.67 136.028 262.866 134.387 263.686 132.58C264.437 130.926 265.674 130.274 267.353 129.971C271.513 129.221 275.689 128.708 279.922 128.713C282.386 128.754 284.863 128.66 287.297 129.145H287.296ZM280.378 140.128C281.384 140.131 281.773 139.696 281.751 138.684C281.611 132.295 282.745 133.236 276.671 133.527C275.326 133.592 273.979 133.688 272.648 133.883C269.138 134.396 266.631 136.476 265.128 140.123C270.421 140.123 275.4 140.116 280.378 140.13V140.128ZM294.989 140.123C295.738 140.107 296.433 139.896 296.64 139.054C296.829 138.28 296.551 137.666 295.859 137.234C293.276 135.622 290.471 134.578 287.508 133.937C287.281 133.888 286.903 133.787 286.832 133.883C285.692 135.442 286.524 137.235 286.292 138.914C286.135 140.052 287.007 140.13 287.861 140.121C289.049 140.108 290.236 140.118 291.425 140.118V140.131C292.613 140.131 293.801 140.151 294.989 140.123Z" fill="#FFD22F" stroke="#1A2035" stroke-width="0.119708" stroke-miterlimit="10"/>
<path d="M299.849 153.085C304.724 153.053 308.861 157.178 308.856 162.061C308.85 166.986 304.791 171.072 299.9 171.078C294.779 171.084 290.813 167.109 290.832 161.991C290.852 157.051 294.834 153.118 299.851 153.085H299.849ZM294.896 162.217C294.955 164.803 297.201 166.996 299.823 167.029C302.474 167.061 304.787 164.666 304.716 161.96C304.648 159.35 302.376 157.124 299.803 157.146C297.098 157.168 294.835 159.506 294.896 162.216V162.217Z" fill="#1A2035" stroke="#1A2035" stroke-width="0.119708" stroke-miterlimit="10"/>
<path d="M244.951 162.092C244.947 157.113 248.883 153.137 253.866 153.091C258.837 153.045 262.834 156.965 262.904 161.958C262.974 166.944 259.04 171.029 254.123 171.075C249.001 171.124 244.954 167.161 244.951 162.092ZM253.955 167.031C256.636 167.019 258.929 164.634 258.842 161.946C258.758 159.339 256.475 157.117 253.907 157.142C251.207 157.168 248.957 159.507 249.012 162.232C249.064 164.808 251.365 167.042 253.954 167.031H253.955Z" fill="#1A2035" stroke="#1A2035" stroke-width="0.119708" stroke-miterlimit="10"/>
<path d="M225.195 260.823C230.27 260.823 234.384 256.7 234.384 251.614C234.384 246.527 230.27 242.404 225.195 242.404C220.12 242.404 216.006 246.527 216.006 251.614C216.006 256.7 220.12 260.823 225.195 260.823Z" fill="white" stroke="#231F20" stroke-width="1.09294" stroke-miterlimit="10"/>
<path d="M220.591 251.094L222.473 253.477C222.859 253.967 223.566 254.057 224.063 253.68L229.803 249.317" fill="white"/>
<path d="M220.591 251.094L222.473 253.477C222.859 253.967 223.566 254.057 224.063 253.68L229.803 249.317" stroke="#231F20" stroke-width="1.12526" stroke-linecap="round" stroke-linejoin="round"/>
<path d="M281.839 260.823C286.914 260.823 291.028 256.7 291.028 251.614C291.028 246.527 286.914 242.404 281.839 242.404C276.765 242.404 272.651 246.527 272.651 251.614C272.651 256.7 276.765 260.823 281.839 260.823Z" fill="white" stroke="#231F20" stroke-width="1.09294" stroke-miterlimit="10"/>
<path d="M277.234 251.094L279.116 253.477C279.503 253.967 280.21 254.057 280.706 253.68L286.446 249.317" fill="white"/>
<path d="M277.234 251.094L279.116 253.477C279.503 253.967 280.21 254.057 280.706 253.68L286.446 249.317" stroke="#231F20" stroke-width="1.12526" stroke-linecap="round" stroke-linejoin="round"/>
<path d="M259.946 282.475L220.899 265.613C219.631 265.065 218.16 265.651 217.614 266.922L200.789 306.058C200.243 307.329 200.828 308.803 202.096 309.351L241.143 326.213C242.411 326.761 243.882 326.174 244.429 324.904L261.253 285.768C261.8 284.497 261.215 283.023 259.946 282.475Z" fill="#94C0FF" stroke="#231F20" stroke-width="1.09294" stroke-miterlimit="10"/>
<path d="M254.08 285.621L222.647 272.046C221.915 271.73 221.066 272.069 220.751 272.802L207.207 304.306C206.892 305.039 207.23 305.89 207.961 306.206L239.394 319.781C240.126 320.097 240.975 319.758 241.29 319.025L254.834 287.521C255.149 286.787 254.811 285.937 254.08 285.621Z" fill="white" stroke="#231F20" stroke-width="1.09294" stroke-miterlimit="10"/>
<path d="M232.173 296.348C231.998 296.733 231.784 296.851 231.389 296.883C230.874 296.926 228.691 297.738 228.967 301.089C227.862 300.032 226.345 297.937 225.523 298.063C225.052 298.136 224.822 298.501 224.7 298.968C224.482 299.808 224.661 300.571 225.002 301.334C225.191 301.759 225.322 302.21 225.603 302.594C225.898 302.996 226.175 303.412 226.469 303.817C226.529 303.898 226.625 303.96 226.711 304.02C226.939 304.18 224.956 309.306 224.717 309.467C224.499 309.615 224.272 309.755 224.038 309.877C223.076 310.377 222.08 310.776 220.977 310.825C220.838 310.831 220.702 310.883 220.566 310.925C220.524 310.937 220.485 310.955 220.454 310.981L212.406 307.505C212.382 307.455 212.351 307.405 212.311 307.353C211.717 306.563 211.071 305.808 210.633 304.911C210.47 304.576 210.303 304.242 210.225 303.877C210.098 303.267 210.301 302.745 210.687 302.279C211.111 301.768 211.604 301.324 212.042 300.826C213.223 299.485 214.28 298.048 215.284 296.57C216.108 295.355 216.889 294.114 217.491 292.77C217.875 291.915 218.237 291.051 218.518 290.155C218.615 289.843 218.746 289.54 218.919 289.26C219.019 289.097 219.072 288.913 219.055 288.729C219.016 288.316 219.036 287.897 218.917 287.494C218.736 286.89 218.625 286.268 218.54 285.65C218.425 284.812 218.421 283.959 218.451 283.108C218.514 281.352 218.888 279.655 219.368 277.978C219.501 277.513 219.696 277.068 220.028 276.689C220.501 276.148 221.399 276.212 221.756 276.834C222.026 277.302 222.094 277.815 222.07 278.343C221.994 279.96 221.923 281.575 222.11 283.188C222.248 284.376 222.494 285.535 223.041 286.618C223.978 288.47 225.363 289.907 227.039 291.096C227.888 291.699 228.743 292.295 229.619 292.859C229.97 293.084 230.331 293.288 230.71 293.456C231.219 293.681 231.725 293.913 232.194 294.214C232.547 294.441 232.567 294.827 232.487 295.205C232.411 295.566 232.326 296.014 232.172 296.348H232.173Z" fill="#B2BAD8"/>
<path d="M252.815 290.7L251.425 293.934C250.572 294.557 249.637 295.051 248.673 295.501C247.782 295.919 246.831 296.159 245.904 296.47C245.043 296.759 244.167 297.001 243.322 297.342C242.723 297.584 242.384 298.028 242.15 298.598C241.799 299.456 241.437 300.308 241.08 301.164C241.076 301.172 241.073 301.18 241.069 301.188C241.004 301.299 236.946 311.576 236.627 312.467C236.232 313.573 235.85 314.686 235.418 315.779C235.231 316.253 235.03 316.723 234.818 317.184L231.168 315.608C231.249 315.403 231.328 315.198 231.407 314.993C231.739 314.136 234.319 308.428 234.57 307.542C234.654 307.239 234.848 307.128 235.167 307.048C237.141 307.143 239.312 305.22 239.626 304.675C239.913 304.18 240.043 303.651 239.737 303.09C239.549 302.744 239.286 302.56 238.902 302.53C238.431 302.494 237.968 302.549 237.515 302.674C236.635 302.919 235.729 303.006 234.824 303.09C234.758 303.096 234.689 303.083 234.621 303.079C234.866 303.091 235.184 302.551 235.31 302.385C235.843 301.677 236.238 300.819 236.158 299.906C236.087 299.073 235.721 298.275 235.142 297.675C234.858 297.379 234.499 297.257 234.122 297.09C233.699 296.905 233.269 296.842 232.825 296.841C232.788 296.841 232.752 296.841 232.714 296.84C232.562 296.834 232.506 296.781 232.606 296.622C233.006 295.763 233.016 295.133 233.008 294.764C232.998 294.385 232.819 294.115 232.512 293.907C232.071 293.607 231.551 293.466 231.097 293.188C229.894 292.453 228.645 291.787 227.521 290.925C227.261 290.726 226.952 290.597 226.724 290.357C226.635 290.265 226.489 290.185 226.552 290.029C226.609 289.886 226.766 289.874 226.893 289.871C232.798 289.77 238.284 292.964 244.227 292.322C246.088 292.121 247.954 291.607 249.625 290.753C250.067 290.526 250.539 290.337 251.031 290.222C251.658 290.075 252.218 290.242 252.725 290.613C252.759 290.638 252.789 290.665 252.815 290.696V290.7Z" fill="#B2BAD8"/>
<path d="M239.313 304.145C239.117 304.472 238.879 304.769 238.604 305.032C237.842 305.76 236.875 306.093 235.911 306.433C235.507 306.576 235.077 306.567 234.667 306.677C234.244 306.791 233.997 307.018 233.871 307.461C233.656 308.224 233.349 308.963 233.005 309.679C232.798 310.11 232.628 310.555 232.447 310.996C232.21 311.576 231.931 312.14 231.674 312.712C231.284 313.583 230.892 314.456 230.458 315.303L227.897 314.197C228.13 313.663 228.327 313.116 228.497 312.558C228.507 312.525 228.519 312.491 228.524 312.456C228.536 312.387 228.573 312.297 228.501 312.262C228.415 312.221 228.391 312.323 228.351 312.376C228.004 312.842 227.795 313.38 227.522 314.034L224.871 312.89C225.15 312.128 225.454 311.377 225.734 310.615C226.275 309.147 226.881 307.706 227.497 306.268C227.57 306.097 227.629 305.92 227.71 305.753C228.042 305.071 227.709 304.566 227.3 304.051C226.641 303.223 225.976 302.394 225.51 301.433C225.265 300.924 225.13 300.379 225.139 299.808C225.141 299.711 225.148 299.612 225.174 299.519C225.254 299.232 225.367 298.941 225.676 298.851C225.968 298.766 226.193 298.956 226.396 299.152C227.154 299.882 227.81 300.705 228.484 301.51C228.902 302.008 229.446 302.344 230.042 302.578C230.346 302.698 230.634 302.849 230.932 302.98C231.645 303.298 232.379 303.544 233.142 303.697C233.632 303.796 234.124 303.755 234.619 303.726C235.351 303.686 236.066 303.556 236.778 303.391C237.233 303.286 237.687 303.173 238.156 303.151C238.441 303.139 238.718 303.166 238.99 303.26C239.433 303.414 239.559 303.735 239.312 304.146L239.313 304.145Z" fill="#B2BAD8"/>
<path d="M235.344 301.234C234.706 302.786 233.055 303.451 231.492 302.85C229.91 302.241 229.196 300.42 229.711 299.083C230.341 297.446 232.141 296.821 233.676 297.452C235.127 298.048 235.961 299.812 235.345 301.234H235.344Z" fill="#B2BAD8"/>
<path d="M238.909 290.796C240.91 290.796 242.531 289.171 242.531 287.166C242.531 285.16 240.91 283.535 238.909 283.535C236.908 283.535 235.287 285.16 235.287 287.166C235.287 289.171 236.908 290.796 238.909 290.796Z" fill="#B2BAD8"/>
<path d="M228.125 288.616C229.925 288.616 231.384 287.154 231.384 285.351C231.384 283.547 229.925 282.085 228.125 282.085C226.326 282.085 224.867 283.547 224.867 285.351C224.867 287.154 226.326 288.616 228.125 288.616Z" fill="#B2BAD8"/>
<path d="M277.789 264.985L237.77 279.378C236.47 279.845 235.795 281.28 236.261 282.583L250.622 322.692C251.088 323.995 252.52 324.672 253.819 324.204L293.838 309.811C295.138 309.344 295.813 307.909 295.347 306.607L280.987 266.497C280.52 265.194 279.089 264.517 277.789 264.985Z" fill="#94C0FF" stroke="#231F20" stroke-width="1.09294" stroke-miterlimit="10"/>
<path d="M275.644 271.297L243.429 282.883C242.679 283.153 242.289 283.981 242.558 284.733L254.118 317.021C254.387 317.773 255.213 318.163 255.963 317.894L288.179 306.307C288.929 306.038 289.318 305.21 289.049 304.458L277.489 272.17C277.22 271.418 276.394 271.027 275.644 271.297Z" fill="white" stroke="#231F20" stroke-width="1.09294" stroke-miterlimit="10"/>
<path d="M259.244 303.083C258.725 301.638 258.21 300.192 257.69 298.747C257.426 298.011 256.937 297.77 256.225 298.024C255.707 298.207 255.194 298.402 254.672 298.576C254.435 298.655 254.167 298.832 253.949 298.582C253.731 298.335 253.929 298.086 254.044 297.864C255.074 295.886 256.105 293.911 257.149 291.941C258.53 289.331 259.941 286.737 261.301 284.116C261.617 283.509 261.927 283.326 262.584 283.625C263.847 284.198 265.144 284.695 266.425 285.228C266.727 285.355 266.965 285.519 267.129 285.007C267.257 284.611 269.637 283.74 270.019 283.857C270.303 283.945 270.403 284.191 270.494 284.437C270.753 285.145 271.042 285.843 271.253 286.564C271.434 287.184 271.812 287.512 272.398 287.742C273.904 288.333 275.392 288.974 276.882 289.606C277.133 289.713 277.494 289.764 277.464 290.147C277.439 290.47 277.115 290.499 276.882 290.587C276.315 290.804 275.751 291.039 275.167 291.199C274.463 291.392 274.352 291.752 274.596 292.417C275.655 295.299 276.676 298.195 277.71 301.086C277.807 301.358 277.901 301.633 277.984 301.909C278.123 302.363 278.014 302.709 277.537 302.88C275.714 303.535 273.892 304.191 272.067 304.845C271.481 305.055 271.221 304.731 271.044 304.23C270.504 302.7 269.923 301.184 269.418 299.645C269.182 298.926 268.853 298.761 268.142 299.033C265.728 299.957 266.013 299.557 266.785 301.799C267.201 303.004 267.628 304.205 268.075 305.399C268.282 305.95 268.136 306.275 267.583 306.47C265.758 307.116 263.932 307.767 262.115 308.438C261.466 308.678 261.148 308.419 260.94 307.826C260.385 306.24 259.811 304.661 259.244 303.08V303.083Z" fill="#B2BAD8"/>
<path d="M101.37 89.7691C100.043 89.6431 98.9809 88.93 98.2196 87.7356C97.8864 87.2138 97.8176 86.7396 98.0655 86.6743C98.4544 86.5709 98.6584 86.8906 98.9026 87.0653C100.097 87.9257 101.361 88.3679 102.828 87.8651C102.949 87.8235 103.09 87.8342 103.221 87.8307C103.513 87.8223 103.731 87.9554 103.863 88.2098C104.038 88.5509 103.947 88.8646 103.686 89.1095C103.119 89.6407 102.392 89.8475 101.371 89.7691H101.37Z" fill="#1A2035"/>
</g>
</g>
<defs>
<clipPath id="clip0_90_271">
<rect width="375" height="332" fill="white"/>
</clipPath>
<clipPath id="clip1_90_271">
<rect width="316.667" height="319.693" fill="white" transform="translate(29.1667 26.1006)"/>
</clipPath>
</defs>
</svg>
